<svg width="171" height="36" viewBox="0 0 171 36" fill="none" xmlns="http://www.w3.org/2000/svg">
<path fill-rule="evenodd" clip-rule="evenodd" d="M27.8333 18C27.8333 25.0877 22.0877 30.8333 15 30.8333C7.91234 30.8333 2.16666 25.0877 2.16666 18C2.16666 10.9123 7.91234 5.16666 15 5.16666C22.0877 5.16666 27.8333 10.9123 27.8333 18ZM30 18C30 26.2843 23.2843 33 15 33C6.71573 33 0 26.2843 0 18C0 9.71573 6.71573 3 15 3C23.2843 3 30 9.71573 30 18ZM23.2759 11.2759C23.2759 12.1329 22.5812 12.8276 21.7242 12.8276C20.8672 12.8276 20.1725 12.1329 20.1725 11.2759C20.1725 10.4189 20.8672 9.72418 21.7242 9.72418C22.5812 9.72418 23.2759 10.4189 23.2759 11.2759ZM10.4879 19.209C11.1556 21.7009 13.717 23.1797 16.2089 22.512C18.7008 21.8443 20.1796 19.2829 19.5119 16.791C18.8442 14.2991 16.2828 12.8203 13.7909 13.488C11.299 14.1557 9.82015 16.7171 10.4879 19.209ZM8.39503 19.7698C9.37244 23.4175 13.1219 25.5823 16.7696 24.6049C20.4174 23.6274 22.5821 19.878 21.6047 16.2302C20.6273 12.5825 16.8779 10.4177 13.2301 11.3952C9.58236 12.3726 7.41762 16.122 8.39503 19.7698Z" fill="url(#paint0_linear_9_2)"/>
<mask id="path-2-outside-1_9_2" maskUnits="userSpaceOnUse" x="38" y="8" width="132" height="20" fill="black">
<rect fill="white" x="38" y="8" width="132" height="20"/>
<path d="M49.5039 22.4126H51.502V22.5186C51.502 23.1745 51.2749 23.8455 50.8208 24.5317C50.3667 25.2078 49.7511 25.7023 48.9741 26.0151C48.1971 26.3381 47.2788 26.4995 46.2192 26.4995C44.1001 26.4995 42.3644 25.7629 41.0122 24.2896C39.6701 22.8162 38.999 20.6063 38.999 17.6597C38.999 14.7332 39.6701 12.5283 41.0122 11.0449C42.3543 9.56152 44.0951 8.81982 46.2344 8.81982C47.2839 8.81982 48.1971 8.98128 48.9741 9.3042C49.7511 9.61702 50.3667 10.1216 50.8208 10.8179C51.2749 11.5041 51.502 12.165 51.502 12.8008V12.9067H49.5039V12.8008C49.5039 12.3971 49.3727 12.0086 49.1104 11.6353C48.8581 11.2518 48.4948 10.9642 48.0205 10.7725C47.5462 10.5807 46.9761 10.4849 46.3101 10.4849C44.6047 10.4849 43.3332 11.161 42.4956 12.5132C41.658 13.8553 41.2393 15.5708 41.2393 17.6597C41.2393 19.7687 41.658 21.4943 42.4956 22.8364C43.3433 24.1685 44.6097 24.8345 46.2949 24.8345C47.4554 24.8345 48.2778 24.5973 48.7622 24.123C49.2567 23.6387 49.5039 23.1038 49.5039 22.5186V22.4126ZM55.9219 26H53.9238V8.65332H55.9219V16.0703C56.3457 15.4144 56.7544 14.93 57.1479 14.6172C57.5516 14.3044 57.9704 14.0672 58.4043 13.9058C58.8382 13.7443 59.3226 13.6636 59.8574 13.6636C60.6042 13.6636 61.2752 13.82 61.8706 14.1328C62.4761 14.4355 62.9403 14.8896 63.2632 15.4951C63.5962 16.0905 63.7627 17.0441 63.7627 18.356V26H61.7646V19.2188C61.7646 18.139 61.694 17.3771 61.5527 16.9331C61.4115 16.4891 61.139 16.141 60.7354 15.8887C60.3317 15.6263 59.8726 15.4951 59.3579 15.4951C58.7726 15.4951 58.2126 15.6667 57.6777 16.0098C57.153 16.3529 56.7292 16.8372 56.4062 17.4629C56.0833 18.0785 55.9219 18.9564 55.9219 20.0967V26ZM74.1768 26C73.9648 25.3542 73.8589 24.7992 73.8589 24.335C72.981 25.2028 72.2342 25.7528 71.6187 25.9849C71.0031 26.217 70.4077 26.333 69.8325 26.333C68.884 26.333 68.0666 26.0404 67.3804 25.4551C66.6942 24.8698 66.3511 24.0675 66.3511 23.0483C66.3511 21.8879 66.8304 20.9948 67.7891 20.3691C68.7578 19.7334 70.4229 19.1834 72.7842 18.7192L73.8589 18.5225V17.1602C73.8589 16.4235 73.6117 15.9089 73.1172 15.6162C72.6227 15.3135 72.0273 15.1621 71.3311 15.1621C70.5036 15.1621 69.8527 15.3488 69.3784 15.7222C68.9142 16.0854 68.6821 16.5093 68.6821 16.9937V17.1602H66.5176V17.0088C66.5176 16.474 66.7396 15.924 67.1836 15.3589C67.6377 14.7938 68.2331 14.37 68.9697 14.0874C69.7165 13.7948 70.5288 13.6484 71.4067 13.6484C72.2847 13.6484 73.0819 13.7847 73.7983 14.0571C74.5148 14.3296 75.0345 14.6979 75.3574 15.1621C75.6904 15.6263 75.8569 16.4941 75.8569 17.7656V22.4277C75.8569 22.9424 75.867 23.4823 75.8872 24.0474C75.9175 24.6024 76.0487 25.2533 76.2808 26H74.1768ZM73.8589 19.9453L73.2534 20.0815C71.2251 20.576 69.9284 21.0503 69.3633 21.5044C68.7982 21.9484 68.5156 22.4782 68.5156 23.0938C68.5156 23.4066 68.5964 23.6992 68.7578 23.9717C68.9294 24.2441 69.1816 24.4561 69.5146 24.6074C69.8477 24.7588 70.1756 24.8345 70.4985 24.8345C71.0535 24.8345 71.5985 24.673 72.1333 24.3501C72.6782 24.0171 73.1021 23.5781 73.4048 23.0332C73.7075 22.4883 73.8589 21.8525 73.8589 21.126V19.9453ZM86.271 24.3047V25.9849C85.3022 26.217 84.5605 26.333 84.0459 26.333C83.2992 26.333 82.623 26.1816 82.0176 25.8789C81.4222 25.5762 80.9681 25.1423 80.6553 24.5771C80.3424 24.002 80.186 23.0887 80.186 21.8374V15.6616H78.1123V13.9966H80.186V11.1509H82.1992V13.9966H85.6958V15.6616H82.1992V21.2622C82.1992 22.3218 82.2799 23.0584 82.4414 23.4722C82.6029 23.8859 82.8602 24.1886 83.2134 24.3804C83.5666 24.5721 83.9904 24.668 84.4849 24.668C84.8784 24.668 85.4738 24.5469 86.271 24.3047ZM96.0493 24.3047V25.9849C95.0806 26.217 94.3389 26.333 93.8242 26.333C93.0775 26.333 92.4014 26.1816 91.7959 25.8789C91.2005 25.5762 90.7464 25.1423 90.4336 24.5771C90.1208 24.002 89.9644 23.0887 89.9644 21.8374V15.6616H87.8906V13.9966H89.9644V11.1509H91.9775V13.9966H95.4741V15.6616H91.9775V21.2622C91.9775 22.3218 92.0583 23.0584 92.2197 23.4722C92.3812 23.8859 92.6385 24.1886 92.9917 24.3804C93.3449 24.5721 93.7687 24.668 94.2632 24.668C94.6567 24.668 95.2521 24.5469 96.0493 24.3047ZM106.342 22.9121H108.34V23.0181C108.34 23.5529 108.128 24.0978 107.705 24.6528C107.281 25.1978 106.721 25.6165 106.024 25.9092C105.328 26.1917 104.531 26.333 103.633 26.333C101.806 26.333 100.394 25.7427 99.3945 24.562C98.4056 23.3813 97.9111 21.8879 97.9111 20.0815C97.9111 18.2349 98.4359 16.7061 99.4854 15.4951C100.535 14.2741 101.887 13.6636 103.542 13.6636C104.45 13.6636 105.273 13.8604 106.009 14.2539C106.756 14.6475 107.341 15.263 107.765 16.1006C108.199 16.9281 108.416 18.0885 108.416 19.582V20.248H99.894C99.894 21.5296 100.237 22.5892 100.923 23.4268C101.62 24.2542 102.578 24.668 103.799 24.668C104.677 24.668 105.318 24.5015 105.722 24.1685C106.135 23.8254 106.342 23.4419 106.342 23.0181V22.9121ZM100.015 18.7495H106.494V18.5073C106.494 17.9523 106.357 17.4124 106.085 16.8877C105.823 16.3529 105.454 15.9593 104.98 15.707C104.506 15.4548 103.956 15.3286 103.33 15.3286C102.583 15.3286 101.892 15.6313 101.256 16.2368C100.631 16.8322 100.217 17.6698 100.015 18.7495ZM113.169 26H111.171V13.9966H113.169V16.1157C113.502 15.5002 113.86 15.0259 114.244 14.6929C114.637 14.3599 115.056 14.1076 115.5 13.936C115.944 13.7544 116.393 13.6636 116.847 13.6636C117.261 13.6636 117.619 13.7241 117.922 13.8452V15.9189C117.448 15.6868 116.948 15.5708 116.423 15.5708C115.667 15.5708 114.935 15.9038 114.229 16.5698C113.522 17.2257 113.169 18.3913 113.169 20.0664V26ZM121.524 26H119.678V9.31934H121.812L126.989 21.2319L131.757 9.31934H133.861V26H131.938V16.0552L131.984 13.0884H131.938L130.864 16.0703L127.912 23.5024H125.717L122.508 16.04L121.524 13.3306H121.464L121.524 16.04V26ZM144.441 26C144.229 25.3542 144.124 24.7992 144.124 24.335C143.246 25.2028 142.499 25.7528 141.883 25.9849C141.268 26.217 140.672 26.333 140.097 26.333C139.149 26.333 138.331 26.0404 137.645 25.4551C136.959 24.8698 136.616 24.0675 136.616 23.0483C136.616 21.8879 137.095 20.9948 138.054 20.3691C139.022 19.7334 140.688 19.1834 143.049 18.7192L144.124 18.5225V17.1602C144.124 16.4235 143.876 15.9089 143.382 15.6162C142.887 15.3135 142.292 15.1621 141.596 15.1621C140.768 15.1621 140.117 15.3488 139.643 15.7222C139.179 16.0854 138.947 16.5093 138.947 16.9937V17.1602H136.782V17.0088C136.782 16.474 137.004 15.924 137.448 15.3589C137.902 14.7938 138.498 14.37 139.234 14.0874C139.981 13.7948 140.793 13.6484 141.671 13.6484C142.549 13.6484 143.347 13.7847 144.063 14.0571C144.779 14.3296 145.299 14.6979 145.622 15.1621C145.955 15.6263 146.122 16.4941 146.122 17.7656V22.4277C146.122 22.9424 146.132 23.4823 146.152 24.0474C146.182 24.6024 146.313 25.2533 146.545 26H144.441ZM144.124 19.9453L143.518 20.0815C141.49 20.576 140.193 21.0503 139.628 21.5044C139.063 21.9484 138.78 22.4782 138.78 23.0938C138.78 23.4066 138.861 23.6992 139.022 23.9717C139.194 24.2441 139.446 24.4561 139.779 24.6074C140.112 24.7588 140.44 24.8345 140.763 24.8345C141.318 24.8345 141.863 24.673 142.398 24.3501C142.943 24.0171 143.367 23.5781 143.669 23.0332C143.972 22.4883 144.124 21.8525 144.124 21.126V19.9453ZM156.536 24.3047V25.9849C155.567 26.217 154.825 26.333 154.311 26.333C153.564 26.333 152.888 26.1816 152.282 25.8789C151.687 25.5762 151.233 25.1423 150.92 24.5771C150.607 24.002 150.451 23.0887 150.451 21.8374V15.6616H148.377V13.9966H150.451V11.1509H152.464V13.9966H155.96V15.6616H152.464V21.2622C152.464 22.3218 152.545 23.0584 152.706 23.4722C152.868 23.8859 153.125 24.1886 153.478 24.3804C153.831 24.5721 154.255 24.668 154.75 24.668C155.143 24.668 155.738 24.5469 156.536 24.3047ZM166.829 22.9121H168.827V23.0181C168.827 23.5529 168.615 24.0978 168.191 24.6528C167.767 25.1978 167.207 25.6165 166.511 25.9092C165.814 26.1917 165.017 26.333 164.119 26.333C162.293 26.333 160.88 25.7427 159.881 24.562C158.892 23.3813 158.397 21.8879 158.397 20.0815C158.397 18.2349 158.922 16.7061 159.972 15.4951C161.021 14.2741 162.373 13.6636 164.028 13.6636C164.937 13.6636 165.759 13.8604 166.496 14.2539C167.242 14.6475 167.828 15.263 168.251 16.1006C168.685 16.9281 168.902 18.0885 168.902 19.582V20.248H160.38C160.38 21.5296 160.723 22.5892 161.41 23.4268C162.106 24.2542 163.065 24.668 164.286 24.668C165.164 24.668 165.804 24.5015 166.208 24.1685C166.622 23.8254 166.829 23.4419 166.829 23.0181V22.9121ZM160.501 18.7495H166.98V18.5073C166.98 17.9523 166.844 17.4124 166.571 16.8877C166.309 16.3529 165.941 15.9593 165.466 15.707C164.992 15.4548 164.442 15.3286 163.816 15.3286C163.07 15.3286 162.378 15.6313 161.743 16.2368C161.117 16.8322 160.703 17.6698 160.501 18.7495Z"/>
</mask>
<path d="M49.5039 22.4126H51.502V22.5186C51.502 23.1745 51.2749 23.8455 50.8208 24.5317C50.3667 25.2078 49.7511 25.7023 48.9741 26.0151C48.1971 26.3381 47.2788 26.4995 46.2192 26.4995C44.1001 26.4995 42.3644 25.7629 41.0122 24.2896C39.6701 22.8162 38.999 20.6063 38.999 17.6597C38.999 14.7332 39.6701 12.5283 41.0122 11.0449C42.3543 9.56152 44.0951 8.81982 46.2344 8.81982C47.2839 8.81982 48.1971 8.98128 48.9741 9.3042C49.7511 9.61702 50.3667 10.1216 50.8208 10.8179C51.2749 11.5041 51.502 12.165 51.502 12.8008V12.9067H49.5039V12.8008C49.5039 12.3971 49.3727 12.0086 49.1104 11.6353C48.8581 11.2518 48.4948 10.9642 48.0205 10.7725C47.5462 10.5807 46.9761 10.4849 46.3101 10.4849C44.6047 10.4849 43.3332 11.161 42.4956 12.5132C41.658 13.8553 41.2393 15.5708 41.2393 17.6597C41.2393 19.7687 41.658 21.4943 42.4956 22.8364C43.3433 24.1685 44.6097 24.8345 46.2949 24.8345C47.4554 24.8345 48.2778 24.5973 48.7622 24.123C49.2567 23.6387 49.5039 23.1038 49.5039 22.5186V22.4126ZM55.9219 26H53.9238V8.65332H55.9219V16.0703C56.3457 15.4144 56.7544 14.93 57.1479 14.6172C57.5516 14.3044 57.9704 14.0672 58.4043 13.9058C58.8382 13.7443 59.3226 13.6636 59.8574 13.6636C60.6042 13.6636 61.2752 13.82 61.8706 14.1328C62.4761 14.4355 62.9403 14.8896 63.2632 15.4951C63.5962 16.0905 63.7627 17.0441 63.7627 18.356V26H61.7646V19.2188C61.7646 18.139 61.694 17.3771 61.5527 16.9331C61.4115 16.4891 61.139 16.141 60.7354 15.8887C60.3317 15.6263 59.8726 15.4951 59.3579 15.4951C58.7726 15.4951 58.2126 15.6667 57.6777 16.0098C57.153 16.3529 56.7292 16.8372 56.4062 17.4629C56.0833 18.0785 55.9219 18.9564 55.9219 20.0967V26ZM74.1768 26C73.9648 25.3542 73.8589 24.7992 73.8589 24.335C72.981 25.2028 72.2342 25.7528 71.6187 25.9849C71.0031 26.217 70.4077 26.333 69.8325 26.333C68.884 26.333 68.0666 26.0404 67.3804 25.4551C66.6942 24.8698 66.3511 24.0675 66.3511 23.0483C66.3511 21.8879 66.8304 20.9948 67.7891 20.3691C68.7578 19.7334 70.4229 19.1834 72.7842 18.7192L73.8589 18.5225V17.1602C73.8589 16.4235 73.6117 15.9089 73.1172 15.6162C72.6227 15.3135 72.0273 15.1621 71.3311 15.1621C70.5036 15.1621 69.8527 15.3488 69.3784 15.7222C68.9142 16.0854 68.6821 16.5093 68.6821 16.9937V17.1602H66.5176V17.0088C66.5176 16.474 66.7396 15.924 67.1836 15.3589C67.6377 14.7938 68.2331 14.37 68.9697 14.0874C69.7165 13.7948 70.5288 13.6484 71.4067 13.6484C72.2847 13.6484 73.0819 13.7847 73.7983 14.0571C74.5148 14.3296 75.0345 14.6979 75.3574 15.1621C75.6904 15.6263 75.8569 16.4941 75.8569 17.7656V22.4277C75.8569 22.9424 75.867 23.4823 75.8872 24.0474C75.9175 24.6024 76.0487 25.2533 76.2808 26H74.1768ZM73.8589 19.9453L73.2534 20.0815C71.2251 20.576 69.9284 21.0503 69.3633 21.5044C68.7982 21.9484 68.5156 22.4782 68.5156 23.0938C68.5156 23.4066 68.5964 23.6992 68.7578 23.9717C68.9294 24.2441 69.1816 24.4561 69.5146 24.6074C69.8477 24.7588 70.1756 24.8345 70.4985 24.8345C71.0535 24.8345 71.5985 24.673 72.1333 24.3501C72.6782 24.0171 73.1021 23.5781 73.4048 23.0332C73.7075 22.4883 73.8589 21.8525 73.8589 21.126V19.9453ZM86.271 24.3047V25.9849C85.3022 26.217 84.5605 26.333 84.0459 26.333C83.2992 26.333 82.623 26.1816 82.0176 25.8789C81.4222 25.5762 80.9681 25.1423 80.6553 24.5771C80.3424 24.002 80.186 23.0887 80.186 21.8374V15.6616H78.1123V13.9966H80.186V11.1509H82.1992V13.9966H85.6958V15.6616H82.1992V21.2622C82.1992 22.3218 82.2799 23.0584 82.4414 23.4722C82.6029 23.8859 82.8602 24.1886 83.2134 24.3804C83.5666 24.5721 83.9904 24.668 84.4849 24.668C84.8784 24.668 85.4738 24.5469 86.271 24.3047ZM96.0493 24.3047V25.9849C95.0806 26.217 94.3389 26.333 93.8242 26.333C93.0775 26.333 92.4014 26.1816 91.7959 25.8789C91.2005 25.5762 90.7464 25.1423 90.4336 24.5771C90.1208 24.002 89.9644 23.0887 89.9644 21.8374V15.6616H87.8906V13.9966H89.9644V11.1509H91.9775V13.9966H95.4741V15.6616H91.9775V21.2622C91.9775 22.3218 92.0583 23.0584 92.2197 23.4722C92.3812 23.8859 92.6385 24.1886 92.9917 24.3804C93.3449 24.5721 93.7687 24.668 94.2632 24.668C94.6567 24.668 95.2521 24.5469 96.0493 24.3047ZM106.342 22.9121H108.34V23.0181C108.34 23.5529 108.128 24.0978 107.705 24.6528C107.281 25.1978 106.721 25.6165 106.024 25.9092C105.328 26.1917 104.531 26.333 103.633 26.333C101.806 26.333 100.394 25.7427 99.3945 24.562C98.4056 23.3813 97.9111 21.8879 97.9111 20.0815C97.9111 18.2349 98.4359 16.7061 99.4854 15.4951C100.535 14.2741 101.887 13.6636 103.542 13.6636C104.45 13.6636 105.273 13.8604 106.009 14.2539C106.756 14.6475 107.341 15.263 107.765 16.1006C108.199 16.9281 108.416 18.0885 108.416 19.582V20.248H99.894C99.894 21.5296 100.237 22.5892 100.923 23.4268C101.62 24.2542 102.578 24.668 103.799 24.668C104.677 24.668 105.318 24.5015 105.722 24.1685C106.135 23.8254 106.342 23.4419 106.342 23.0181V22.9121ZM100.015 18.7495H106.494V18.5073C106.494 17.9523 106.357 17.4124 106.085 16.8877C105.823 16.3529 105.454 15.9593 104.98 15.707C104.506 15.4548 103.956 15.3286 103.33 15.3286C102.583 15.3286 101.892 15.6313 101.256 16.2368C100.631 16.8322 100.217 17.6698 100.015 18.7495ZM113.169 26H111.171V13.9966H113.169V16.1157C113.502 15.5002 113.86 15.0259 114.244 14.6929C114.637 14.3599 115.056 14.1076 115.5 13.936C115.944 13.7544 116.393 13.6636 116.847 13.6636C117.261 13.6636 117.619 13.7241 117.922 13.8452V15.9189C117.448 15.6868 116.948 15.5708 116.423 15.5708C115.667 15.5708 114.935 15.9038 114.229 16.5698C113.522 17.2257 113.169 18.3913 113.169 20.0664V26ZM121.524 26H119.678V9.31934H121.812L126.989 21.2319L131.757 9.31934H133.861V26H131.938V16.0552L131.984 13.0884H131.938L130.864 16.0703L127.912 23.5024H125.717L122.508 16.04L121.524 13.3306H121.464L121.524 16.04V26ZM144.441 26C144.229 25.3542 144.124 24.7992 144.124 24.335C143.246 25.2028 142.499 25.7528 141.883 25.9849C141.268 26.217 140.672 26.333 140.097 26.333C139.149 26.333 138.331 26.0404 137.645 25.4551C136.959 24.8698 136.616 24.0675 136.616 23.0483C136.616 21.8879 137.095 20.9948 138.054 20.3691C139.022 19.7334 140.688 19.1834 143.049 18.7192L144.124 18.5225V17.1602C144.124 16.4235 143.876 15.9089 143.382 15.6162C142.887 15.3135 142.292 15.1621 141.596 15.1621C140.768 15.1621 140.117 15.3488 139.643 15.7222C139.179 16.0854 138.947 16.5093 138.947 16.9937V17.1602H136.782V17.0088C136.782 16.474 137.004 15.924 137.448 15.3589C137.902 14.7938 138.498 14.37 139.234 14.0874C139.981 13.7948 140.793 13.6484 141.671 13.6484C142.549 13.6484 143.347 13.7847 144.063 14.0571C144.779 14.3296 145.299 14.6979 145.622 15.1621C145.955 15.6263 146.122 16.4941 146.122 17.7656V22.4277C146.122 22.9424 146.132 23.4823 146.152 24.0474C146.182 24.6024 146.313 25.2533 146.545 26H144.441ZM144.124 19.9453L143.518 20.0815C141.49 20.576 140.193 21.0503 139.628 21.5044C139.063 21.9484 138.78 22.4782 138.78 23.0938C138.78 23.4066 138.861 23.6992 139.022 23.9717C139.194 24.2441 139.446 24.4561 139.779 24.6074C140.112 24.7588 140.44 24.8345 140.763 24.8345C141.318 24.8345 141.863 24.673 142.398 24.3501C142.943 24.0171 143.367 23.5781 143.669 23.0332C143.972 22.4883 144.124 21.8525 144.124 21.126V19.9453ZM156.536 24.3047V25.9849C155.567 26.217 154.825 26.333 154.311 26.333C153.564 26.333 152.888 26.1816 152.282 25.8789C151.687 25.5762 151.233 25.1423 150.92 24.5771C150.607 24.002 150.451 23.0887 150.451 21.8374V15.6616H148.377V13.9966H150.451V11.1509H152.464V13.9966H155.96V15.6616H152.464V21.2622C152.464 22.3218 152.545 23.0584 152.706 23.4722C152.868 23.8859 153.125 24.1886 153.478 24.3804C153.831 24.5721 154.255 24.668 154.75 24.668C155.143 24.668 155.738 24.5469 156.536 24.3047ZM166.829 22.9121H168.827V23.0181C168.827 23.5529 168.615 24.0978 168.191 24.6528C167.767 25.1978 167.207 25.6165 166.511 25.9092C165.814 26.1917 165.017 26.333 164.119 26.333C162.293 26.333 160.88 25.7427 159.881 24.562C158.892 23.3813 158.397 21.8879 158.397 20.0815C158.397 18.2349 158.922 16.7061 159.972 15.4951C161.021 14.2741 162.373 13.6636 164.028 13.6636C164.937 13.6636 165.759 13.8604 166.496 14.2539C167.242 14.6475 167.828 15.263 168.251 16.1006C168.685 16.9281 168.902 18.0885 168.902 19.582V20.248H160.38C160.38 21.5296 160.723 22.5892 161.41 23.4268C162.106 24.2542 163.065 24.668 164.286 24.668C165.164 24.668 165.804 24.5015 166.208 24.1685C166.622 23.8254 166.829 23.4419 166.829 23.0181V22.9121ZM160.501 18.7495H166.98V18.5073C166.98 17.9523 166.844 17.4124 166.571 16.8877C166.309 16.3529 165.941 15.9593 165.466 15.707C164.992 15.4548 164.442 15.3286 163.816 15.3286C163.07 15.3286 162.378 15.6313 161.743 16.2368C161.117 16.8322 160.703 17.6698 160.501 18.7495Z" fill="white"/>
<path d="M49.5039 22.4126V21.8626H48.9539V22.4126H49.5039ZM51.502 22.4126H52.052V21.8626H51.502V22.4126ZM50.8208 24.5317L51.2774 24.8384L51.2795 24.8353L50.8208 24.5317ZM48.9741 26.0151L48.7687 25.5049L48.7631 25.5072L48.9741 26.0151ZM41.0122 24.2896L40.6056 24.6599L40.607 24.6615L41.0122 24.2896ZM41.0122 11.0449L40.6044 10.6759L41.0122 11.0449ZM48.9741 9.3042L48.763 9.81212L48.7687 9.8144L48.9741 9.3042ZM50.8208 10.8179L50.3601 11.1183L50.3621 11.1214L50.8208 10.8179ZM51.502 12.9067V13.4567H52.052V12.9067H51.502ZM49.5039 12.9067H48.9539V13.4567H49.5039V12.9067ZM49.1104 11.6353L48.6509 11.9375L48.6555 11.9446L48.6603 11.9515L49.1104 11.6353ZM42.4956 12.5132L42.9622 12.8044L42.9632 12.8028L42.4956 12.5132ZM42.4956 22.8364L42.029 23.1276L42.0316 23.1317L42.4956 22.8364ZM48.7622 24.123L49.147 24.516L49.1471 24.5159L48.7622 24.123ZM49.5039 22.9626H51.502V21.8626H49.5039V22.9626ZM50.952 22.4126V22.5186H52.052V22.4126H50.952ZM50.952 22.5186C50.952 23.042 50.7718 23.6091 50.3621 24.2282L51.2795 24.8353C51.778 24.082 52.052 23.307 52.052 22.5186H50.952ZM50.3642 24.2251C49.9734 24.807 49.4466 25.232 48.7687 25.5049L49.1795 26.5253C50.0557 26.1726 50.76 25.6087 51.2774 24.8384L50.3642 24.2251ZM48.7631 25.5072C48.0678 25.7962 47.2245 25.9495 46.2192 25.9495V27.0495C47.3332 27.0495 48.3264 26.8799 49.1852 26.523L48.7631 25.5072ZM46.2192 25.9495C44.2438 25.9495 42.6587 25.2701 41.4174 23.9177L40.607 24.6615C42.0702 26.2557 43.9564 27.0495 46.2192 27.0495V25.9495ZM41.4188 23.9192C40.2046 22.5863 39.549 20.5335 39.549 17.6597H38.449C38.449 20.679 39.1356 23.0462 40.6056 24.6599L41.4188 23.9192ZM39.549 17.6597C39.549 14.8075 40.2039 12.7581 41.4201 11.4139L40.6044 10.6759C39.1362 12.2986 38.449 14.6589 38.449 17.6597H39.549ZM41.4201 11.4139C42.65 10.0545 44.2383 9.36982 46.2344 9.36982V8.26982C43.9518 8.26982 42.0586 9.06857 40.6044 10.6759L41.4201 11.4139ZM46.2344 9.36982C47.2287 9.36982 48.0672 9.52292 48.7631 9.81209L49.1852 8.79631C48.327 8.43964 47.339 8.26982 46.2344 8.26982V9.36982ZM48.7687 9.8144C49.442 10.0855 49.9681 10.5172 50.3601 11.1183L51.2815 10.5174C50.7653 9.72594 50.0603 9.14858 49.1795 8.794L48.7687 9.8144ZM50.3621 11.1214C50.774 11.7438 50.952 12.3006 50.952 12.8008H52.052C52.052 12.0294 51.7758 11.2643 51.2795 10.5143L50.3621 11.1214ZM50.952 12.8008V12.9067H52.052V12.8008H50.952ZM51.502 12.3567H49.5039V13.4567H51.502V12.3567ZM50.0539 12.9067V12.8008H48.9539V12.9067H50.0539ZM50.0539 12.8008C50.0539 12.2695 49.879 11.7724 49.5604 11.319L48.6603 11.9515C48.8665 12.2448 48.9539 12.5248 48.9539 12.8008H50.0539ZM49.5698 11.333C49.2492 10.8456 48.7921 10.4912 48.2266 10.2626L47.8144 11.2824C48.1974 11.4372 48.4669 11.658 48.6509 11.9375L49.5698 11.333ZM48.2266 10.2626C47.6704 10.0377 47.0264 9.93486 46.3101 9.93486V11.0349C46.9257 11.0349 47.4221 11.1238 47.8144 11.2824L48.2266 10.2626ZM46.3101 9.93486C44.4308 9.93486 42.9743 10.6959 42.028 12.2236L42.9632 12.8028C43.692 11.6261 44.7785 11.0349 46.3101 11.0349V9.93486ZM42.029 12.222C41.1221 13.6753 40.6893 15.5001 40.6893 17.6597H41.7893C41.7893 15.6415 42.194 14.0353 42.9622 12.8044L42.029 12.222ZM40.6893 17.6597C40.6893 19.8383 41.1216 21.6736 42.029 23.1276L42.9622 22.5452C42.1945 21.315 41.7893 19.6992 41.7893 17.6597H40.6893ZM42.0316 23.1317C42.9881 24.6348 44.4369 25.3845 46.2949 25.3845V24.2845C44.7825 24.2845 43.6984 23.7021 42.9596 22.5411L42.0316 23.1317ZM46.2949 25.3845C47.5039 25.3845 48.5074 25.1423 49.147 24.516L48.3774 23.7301C48.0482 24.0524 47.4069 24.2845 46.2949 24.2845V25.3845ZM49.1471 24.5159C49.7264 23.9485 50.0539 23.2785 50.0539 22.5186H48.9539C48.9539 22.9292 48.787 23.3288 48.3773 23.7301L49.1471 24.5159ZM50.0539 22.5186V22.4126H48.9539V22.5186H50.0539ZM55.9219 26V26.55H56.4719V26H55.9219ZM53.9238 26H53.3738V26.55H53.9238V26ZM53.9238 8.65332V8.10332H53.3738V8.65332H53.9238ZM55.9219 8.65332H56.4719V8.10332H55.9219V8.65332ZM55.9219 16.0703H55.3719V17.9349L56.3838 16.3688L55.9219 16.0703ZM57.1479 14.6172L56.811 14.1824L56.8057 14.1866L57.1479 14.6172ZM61.8706 14.1328L61.6147 14.6198L61.6246 14.6247L61.8706 14.1328ZM63.2632 15.4951L62.7778 15.754L62.7832 15.7636L63.2632 15.4951ZM63.7627 26V26.55H64.3127V26H63.7627ZM61.7646 26H61.2146V26.55H61.7646V26ZM60.7354 15.8887L60.4356 16.3499L60.4439 16.3551L60.7354 15.8887ZM57.6777 16.0098L57.3807 15.5468L57.3767 15.5494L57.6777 16.0098ZM56.4062 17.4629L56.8933 17.7184L56.895 17.7151L56.4062 17.4629ZM55.9219 25.45H53.9238V26.55H55.9219V25.45ZM54.4738 26V8.65332H53.3738V26H54.4738ZM53.9238 9.20332H55.9219V8.10332H53.9238V9.20332ZM55.3719 8.65332V16.0703H56.4719V8.65332H55.3719ZM56.3838 16.3688C56.7911 15.7385 57.1619 15.3087 57.4902 15.0477L56.8057 14.1866C56.3469 14.5513 55.9003 15.0903 55.4599 15.7718L56.3838 16.3688ZM57.4849 15.0519C57.849 14.7697 58.2194 14.5614 58.5961 14.4212L58.2125 13.3903C57.7213 13.5731 57.2542 13.839 56.811 14.1825L57.4849 15.0519ZM58.5961 14.4212C58.9599 14.2859 59.3781 14.2136 59.8574 14.2136V13.1136C59.2671 13.1136 58.7165 13.2027 58.2125 13.3903L58.5961 14.4212ZM59.8574 14.2136C60.525 14.2136 61.1067 14.3527 61.6148 14.6197L62.1264 13.6459C61.4438 13.2872 60.6833 13.1136 59.8574 13.1136V14.2136ZM61.6246 14.6247C62.1266 14.8757 62.5079 15.2476 62.7779 15.7539L63.7485 15.2363C63.3727 14.5317 62.8255 13.9954 62.1166 13.6409L61.6246 14.6247ZM62.7832 15.7636C63.0447 16.2312 63.2127 17.0661 63.2127 18.356H64.3127C64.3127 17.0221 64.1477 15.9498 63.7432 15.2266L62.7832 15.7636ZM63.2127 18.356V26H64.3127V18.356H63.2127ZM63.7627 25.45H61.7646V26.55H63.7627V25.45ZM62.3146 26V19.2188H61.2146V26H62.3146ZM62.3146 19.2188C62.3146 18.1371 62.2464 17.2992 62.0768 16.7663L61.0286 17.0999C61.1416 17.4551 61.2146 18.1409 61.2146 19.2188H62.3146ZM62.0768 16.7663C61.8951 16.1951 61.5385 15.7421 61.0269 15.4223L60.4439 16.3551C60.7395 16.5398 60.9278 16.7831 61.0286 17.0999L62.0768 16.7663ZM61.0351 15.4275C60.536 15.1031 59.9713 14.9451 59.3579 14.9451V16.0451C59.7738 16.0451 60.1274 16.1495 60.4356 16.3498L61.0351 15.4275ZM59.3579 14.9451C58.6583 14.9451 57.9963 15.152 57.3808 15.5468L57.9747 16.4727C58.4288 16.1814 58.8869 16.0451 59.3579 16.0451V14.9451ZM57.3767 15.5494C56.7631 15.9507 56.2785 16.5112 55.9175 17.2106L56.895 17.7151C57.1798 17.1633 57.5429 16.7551 57.9787 16.4701L57.3767 15.5494ZM55.9192 17.2074C55.5365 17.9368 55.3719 18.9179 55.3719 20.0967H56.4719C56.4719 18.9949 56.6301 18.2201 56.8933 17.7184L55.9192 17.2074ZM55.3719 20.0967V26H56.4719V20.0967H55.3719ZM74.1768 26L73.6542 26.1715L73.7784 26.55H74.1768V26ZM73.8589 24.335H74.4089V23.0179L73.4722 23.9438L73.8589 24.335ZM67.3804 25.4551L67.0235 25.8735L67.3804 25.4551ZM67.7891 20.3691L68.0897 20.8297L68.0908 20.829L67.7891 20.3691ZM72.7842 18.7192L72.6851 18.1782L72.6781 18.1796L72.7842 18.7192ZM73.8589 18.5225L73.9579 19.0635L74.4089 18.9809V18.5225H73.8589ZM73.1172 15.6162L72.83 16.0853L72.8371 16.0895L73.1172 15.6162ZM69.3784 15.7222L69.7174 16.1553L69.7186 16.1543L69.3784 15.7222ZM68.6821 17.1602V17.7102H69.2321V17.1602H68.6821ZM66.5176 17.1602H65.9676V17.7102H66.5176V17.1602ZM67.1836 15.3589L66.7548 15.0144L66.7511 15.0191L67.1836 15.3589ZM68.9697 14.0874L69.1667 14.6009L69.1704 14.5995L68.9697 14.0874ZM73.7983 14.0571L73.6028 14.5712L73.7983 14.0571ZM75.3574 15.1621L74.9059 15.4762L74.9105 15.4827L75.3574 15.1621ZM75.8872 24.0474L75.3375 24.067L75.338 24.0773L75.8872 24.0474ZM76.2808 26V26.55H77.0277L76.806 25.8368L76.2808 26ZM73.8589 19.9453H74.4089V19.2578L73.7382 19.4087L73.8589 19.9453ZM73.2534 20.0815L73.1327 19.5449L73.1232 19.5472L73.2534 20.0815ZM69.3633 21.5044L69.7031 21.9369L69.7078 21.9331L69.3633 21.5044ZM68.7578 23.9717L68.2847 24.2521L68.2884 24.2585L68.2924 24.2647L68.7578 23.9717ZM72.1333 24.3501L72.4176 24.8209L72.4201 24.8194L72.1333 24.3501ZM74.6993 25.8285C74.498 25.2148 74.4089 24.7207 74.4089 24.335H73.3089C73.3089 24.8777 73.4317 25.4935 73.6542 26.1715L74.6993 25.8285ZM73.4722 23.9438C72.6094 24.7967 71.9296 25.2798 71.4246 25.4702L71.8127 26.4995C72.5389 26.2257 73.3525 25.6089 74.2455 24.7261L73.4722 23.9438ZM71.4246 25.4702C70.8623 25.6823 70.3326 25.783 69.8325 25.783V26.883C70.4828 26.883 71.1439 26.7517 71.8127 26.4995L71.4246 25.4702ZM69.8325 25.783C69.0074 25.783 68.3185 25.5323 67.7373 25.0366L67.0235 25.8735C67.8146 26.5484 68.7605 26.883 69.8325 26.883V25.783ZM67.7373 25.0366C67.1904 24.5701 66.9011 23.93 66.9011 23.0483H65.8011C65.8011 24.2051 66.198 25.1694 67.0235 25.8735L67.7373 25.0366ZM66.9011 23.0483C66.9011 22.0706 67.2892 21.3522 68.0897 20.8297L67.4885 19.9086C66.3716 20.6374 65.8011 21.7051 65.8011 23.0483H66.9011ZM68.0908 20.829C68.9649 20.2554 70.5398 19.721 72.8903 19.2589L72.6781 18.1796C70.3059 18.6459 68.5507 19.2114 67.4873 19.9093L68.0908 20.829ZM72.8832 19.2602L73.9579 19.0635L73.7598 17.9815L72.6851 18.1782L72.8832 19.2602ZM74.4089 18.5225V17.1602H73.3089V18.5225H74.4089ZM74.4089 17.1602C74.4089 16.2921 74.107 15.5629 73.3973 15.1429L72.8371 16.0895C73.1163 16.2548 73.3089 16.5549 73.3089 17.1602H74.4089ZM73.4044 15.1471C72.8075 14.7817 72.1082 14.6121 71.3311 14.6121V15.7121C71.9465 15.7121 72.4379 15.8452 72.83 16.0853L73.4044 15.1471ZM71.3311 14.6121C70.4254 14.6121 69.6399 14.8164 69.0382 15.29L69.7186 16.1543C70.0655 15.8812 70.5817 15.7121 71.3311 15.7121V14.6121ZM69.0394 15.289C68.4741 15.7315 68.1321 16.3032 68.1321 16.9937H69.2321C69.2321 16.7154 69.3543 16.4394 69.7174 16.1553L69.0394 15.289ZM68.1321 16.9937V17.1602H69.2321V16.9937H68.1321ZM68.6821 16.6102H66.5176V17.7102H68.6821V16.6102ZM67.0676 17.1602V17.0088H65.9676V17.1602H67.0676ZM67.0676 17.0088C67.0676 16.6336 67.2221 16.2001 67.6161 15.6987L66.7511 15.0191C66.257 15.6479 65.9676 16.3143 65.9676 17.0088H67.0676ZM67.6123 15.7034C68.0002 15.2208 68.5126 14.8518 69.1667 14.6009L68.7728 13.5739C67.9535 13.8881 67.2752 14.3668 66.7549 15.0144L67.6123 15.7034ZM69.1704 14.5995C69.8474 14.3342 70.591 14.1984 71.4067 14.1984V13.0984C70.4666 13.0984 69.5855 13.2553 68.769 13.5753L69.1704 14.5995ZM71.4067 14.1984C72.2275 14.1984 72.9572 14.3257 73.6028 14.5712L73.9938 13.543C73.2065 13.2437 72.3419 13.0984 71.4067 13.0984V14.1984ZM73.6028 14.5712C74.2518 14.818 74.6651 15.1301 74.9059 15.4762L75.8089 14.848C75.4039 14.2658 74.7779 13.8412 73.9938 13.543L73.6028 14.5712ZM74.9105 15.4827C75.0122 15.6244 75.1163 15.8706 75.1919 16.2648C75.2664 16.6533 75.3069 17.1509 75.3069 17.7656H76.4069C76.4069 17.1088 76.3642 16.5368 76.2722 16.0575C76.1813 15.5839 76.0357 15.164 75.8043 14.8415L74.9105 15.4827ZM75.3069 17.7656V22.4277H76.4069V17.7656H75.3069ZM75.3069 22.4277C75.3069 22.9495 75.3172 23.496 75.3376 24.067L76.4369 24.0277C76.4169 23.4685 76.4069 22.9352 76.4069 22.4277H75.3069ZM75.338 24.0773C75.3715 24.6917 75.515 25.3893 75.7555 26.1632L76.806 25.8368C76.5823 25.1172 76.4634 24.513 76.4364 24.0174L75.338 24.0773ZM76.2808 25.45H74.1768V26.55H76.2808V25.45ZM73.7382 19.4087L73.1327 19.545L73.3741 20.6181L73.9796 20.4819L73.7382 19.4087ZM73.1232 19.5472C72.0981 19.7971 71.2453 20.0448 70.5707 20.2916C69.9074 20.5342 69.3731 20.7909 69.0188 21.0757L69.7078 21.9331C69.9186 21.7637 70.3152 21.5563 70.9486 21.3246C71.5707 21.0971 72.3804 20.8605 73.3837 20.6159L73.1232 19.5472ZM69.0235 21.0719C68.3507 21.6006 67.9656 22.28 67.9656 23.0938H69.0656C69.0656 22.6764 69.2457 22.2962 69.7031 21.9369L69.0235 21.0719ZM67.9656 23.0938C67.9656 23.5065 68.0736 23.8958 68.2847 24.2521L69.231 23.6913C69.1192 23.5026 69.0656 23.3066 69.0656 23.0938H67.9656ZM68.2924 24.2647C68.5288 24.6401 68.8699 24.9185 69.2871 25.1081L69.7422 24.1067C69.4934 23.9936 69.33 23.8481 69.2232 23.6786L68.2924 24.2647ZM69.2871 25.1081C69.682 25.2877 70.0873 25.3845 70.4985 25.3845V24.2845C70.2639 24.2845 70.0133 24.2299 69.7422 24.1067L69.2871 25.1081ZM70.4985 25.3845C71.1659 25.3845 71.808 25.189 72.4176 24.8209L71.849 23.8793C71.3889 24.1571 70.9412 24.2845 70.4985 24.2845V25.3845ZM72.4201 24.8194C73.044 24.4381 73.5356 23.9303 73.8856 23.3003L72.924 22.7661C72.6686 23.2259 72.3125 23.596 71.8465 23.8808L72.4201 24.8194ZM73.8856 23.3003C74.2407 22.6611 74.4089 21.9304 74.4089 21.126H73.3089C73.3089 21.7746 73.1743 22.3155 72.924 22.7661L73.8856 23.3003ZM74.4089 21.126V19.9453H73.3089V21.126H74.4089ZM86.271 24.3047H86.821V23.5628L86.1111 23.7784L86.271 24.3047ZM86.271 25.9849L86.3991 26.5197L86.821 26.4187V25.9849H86.271ZM82.0176 25.8789L81.7683 26.3692L81.7716 26.3708L82.0176 25.8789ZM80.6553 24.5771L80.1721 24.8399L80.1741 24.8435L80.6553 24.5771ZM80.186 15.6616H80.736V15.1116H80.186V15.6616ZM78.1123 15.6616H77.5623V16.2116H78.1123V15.6616ZM78.1123 13.9966V13.4466H77.5623V13.9966H78.1123ZM80.186 13.9966V14.5466H80.736V13.9966H80.186ZM80.186 11.1509V10.6009H79.636V11.1509H80.186ZM82.1992 11.1509H82.7492V10.6009H82.1992V11.1509ZM82.1992 13.9966H81.6492V14.5466H82.1992V13.9966ZM85.6958 13.9966H86.2458V13.4466H85.6958V13.9966ZM85.6958 15.6616V16.2116H86.2458V15.6616H85.6958ZM82.1992 15.6616V15.1116H81.6492V15.6616H82.1992ZM85.721 24.3047V25.9849H86.821V24.3047H85.721ZM86.1429 25.45C85.1848 25.6795 84.494 25.783 84.0459 25.783V26.883C84.6271 26.883 85.4197 26.7544 86.3991 26.5197L86.1429 25.45ZM84.0459 25.783C83.3756 25.783 82.785 25.6477 82.2635 25.387L81.7716 26.3708C82.4611 26.7156 83.2227 26.883 84.0459 26.883V25.783ZM82.2669 25.3886C81.7659 25.1339 81.3942 24.7763 81.1365 24.3108L80.1741 24.8435C80.542 25.5082 81.0785 26.0184 81.7683 26.3692L82.2669 25.3886ZM81.1384 24.3144C80.8937 23.8643 80.736 23.0663 80.736 21.8374H79.636C79.636 23.1111 79.7912 24.1396 80.1721 24.8399L81.1384 24.3144ZM80.736 21.8374V15.6616H79.636V21.8374H80.736ZM80.186 15.1116H78.1123V16.2116H80.186V15.1116ZM78.6623 15.6616V13.9966H77.5623V15.6616H78.6623ZM78.1123 14.5466H80.186V13.4466H78.1123V14.5466ZM80.736 13.9966V11.1509H79.636V13.9966H80.736ZM80.186 11.7009H82.1992V10.6009H80.186V11.7009ZM81.6492 11.1509V13.9966H82.7492V11.1509H81.6492ZM82.1992 14.5466H85.6958V13.4466H82.1992V14.5466ZM85.1458 13.9966V15.6616H86.2458V13.9966H85.1458ZM85.6958 15.1116H82.1992V16.2116H85.6958V15.1116ZM81.6492 15.6616V21.2622H82.7492V15.6616H81.6492ZM81.6492 21.2622C81.6492 22.3212 81.7261 23.1522 81.929 23.6721L82.9538 23.2722C82.8338 22.9647 82.7492 22.3224 82.7492 21.2622H81.6492ZM81.929 23.6721C82.1324 24.1933 82.4714 24.6034 82.951 24.8637L83.4758 23.897C83.249 23.7739 83.0733 23.5785 82.9538 23.2722L81.929 23.6721ZM82.951 24.8637C83.4013 25.1082 83.9196 25.218 84.4849 25.218V24.118C84.0612 24.118 83.7319 24.036 83.4758 23.897L82.951 24.8637ZM84.4849 25.218C84.9649 25.218 85.6263 25.0754 86.4309 24.8309L86.1111 23.7784C85.3213 24.0184 84.7919 24.118 84.4849 24.118V25.218ZM96.0493 24.3047H96.5993V23.5628L95.8894 23.7784L96.0493 24.3047ZM96.0493 25.9849L96.1775 26.5197L96.5993 26.4187V25.9849H96.0493ZM91.7959 25.8789L91.5466 26.3692L91.5499 26.3708L91.7959 25.8789ZM90.4336 24.5771L89.9504 24.8399L89.9524 24.8435L90.4336 24.5771ZM89.9644 15.6616H90.5144V15.1116H89.9644V15.6616ZM87.8906 15.6616H87.3406V16.2116H87.8906V15.6616ZM87.8906 13.9966V13.4466H87.3406V13.9966H87.8906ZM89.9644 13.9966V14.5466H90.5144V13.9966H89.9644ZM89.9644 11.1509V10.6009H89.4144V11.1509H89.9644ZM91.9775 11.1509H92.5275V10.6009H91.9775V11.1509ZM91.9775 13.9966H91.4275V14.5466H91.9775V13.9966ZM95.4741 13.9966H96.0241V13.4466H95.4741V13.9966ZM95.4741 15.6616V16.2116H96.0241V15.6616H95.4741ZM91.9775 15.6616V15.1116H91.4275V15.6616H91.9775ZM95.4993 24.3047V25.9849H96.5993V24.3047H95.4993ZM95.9212 25.45C94.9631 25.6795 94.2724 25.783 93.8242 25.783V26.883C94.4054 26.883 95.1981 26.7544 96.1775 26.5197L95.9212 25.45ZM93.8242 25.783C93.1539 25.783 92.5634 25.6477 92.0419 25.387L91.5499 26.3708C92.2394 26.7156 93.001 26.883 93.8242 26.883V25.783ZM92.0452 25.3886C91.5442 25.1339 91.1725 24.7763 90.9148 24.3108L89.9524 24.8435C90.3203 25.5082 90.8568 26.0184 91.5466 26.3692L92.0452 25.3886ZM90.9168 24.3144C90.672 23.8643 90.5144 23.0663 90.5144 21.8374H89.4144C89.4144 23.1111 89.5695 24.1396 89.9504 24.8399L90.9168 24.3144ZM90.5144 21.8374V15.6616H89.4144V21.8374H90.5144ZM89.9644 15.1116H87.8906V16.2116H89.9644V15.1116ZM88.4406 15.6616V13.9966H87.3406V15.6616H88.4406ZM87.8906 14.5466H89.9644V13.4466H87.8906V14.5466ZM90.5144 13.9966V11.1509H89.4144V13.9966H90.5144ZM89.9644 11.7009H91.9775V10.6009H89.9644V11.7009ZM91.4275 11.1509V13.9966H92.5275V11.1509H91.4275ZM91.9775 14.5466H95.4741V13.4466H91.9775V14.5466ZM94.9241 13.9966V15.6616H96.0241V13.9966H94.9241ZM95.4741 15.1116H91.9775V16.2116H95.4741V15.1116ZM91.4275 15.6616V21.2622H92.5275V15.6616H91.4275ZM91.4275 21.2622C91.4275 22.3212 91.5045 23.1522 91.7074 23.6721L92.7321 23.2722C92.6121 22.9647 92.5275 22.3224 92.5275 21.2622H91.4275ZM91.7074 23.6721C91.9107 24.1933 92.2497 24.6034 92.7293 24.8637L93.2541 23.897C93.0273 23.7739 92.8516 23.5785 92.7321 23.2722L91.7074 23.6721ZM92.7293 24.8637C93.1796 25.1082 93.6979 25.218 94.2632 25.218V24.118C93.8395 24.118 93.5102 24.036 93.2541 23.897L92.7293 24.8637ZM94.2632 25.218C94.7433 25.218 95.4046 25.0754 96.2092 24.8309L95.8894 23.7784C95.0996 24.0184 94.5702 24.118 94.2632 24.118V25.218ZM106.342 22.9121V22.3621H105.792V22.9121H106.342ZM108.34 22.9121H108.89V22.3621H108.34V22.9121ZM107.705 24.6528L108.139 24.9905L108.142 24.9866L107.705 24.6528ZM106.024 25.9092L106.231 26.4189L106.238 26.4162L106.024 25.9092ZM99.3945 24.562L98.9729 24.9152L98.9747 24.9173L99.3945 24.562ZM99.4854 15.4951L99.901 15.8553L99.9025 15.8536L99.4854 15.4951ZM106.009 14.2539L105.75 14.739L105.753 14.7405L106.009 14.2539ZM107.765 16.1006L107.274 16.3489L107.278 16.356L107.765 16.1006ZM108.416 20.248V20.798H108.966V20.248H108.416ZM99.894 20.248V19.698H99.344V20.248H99.894ZM100.923 23.4268L100.498 23.7753L100.503 23.7809L100.923 23.4268ZM105.722 24.1685L106.072 24.5927L106.073 24.5918L105.722 24.1685ZM100.015 18.7495L99.4745 18.6485L99.3528 19.2995H100.015V18.7495ZM106.494 18.7495V19.2995H107.044V18.7495H106.494ZM106.085 16.8877L105.591 17.13L105.597 17.1411L106.085 16.8877ZM104.98 15.707L104.722 16.1926L104.98 15.707ZM101.256 16.2368L101.635 16.6352L101.636 16.6351L101.256 16.2368ZM106.342 23.4621H108.34V22.3621H106.342V23.4621ZM107.79 22.9121V23.0181H108.89V22.9121H107.79ZM107.79 23.0181C107.79 23.3999 107.641 23.8305 107.267 24.319L108.142 24.9866C108.616 24.3651 108.89 23.7059 108.89 23.0181H107.79ZM107.27 24.3152C106.91 24.7787 106.429 25.1425 105.811 25.4021L106.238 26.4162C107.012 26.0905 107.652 25.6168 108.139 24.9905L107.27 24.3152ZM105.818 25.3995C105.198 25.6508 104.474 25.783 103.633 25.783V26.883C104.588 26.883 105.458 26.7327 106.231 26.4188L105.818 25.3995ZM103.633 25.783C101.936 25.783 100.69 25.2412 99.8144 24.2067L98.9747 24.9173C100.097 26.2442 101.677 26.883 103.633 26.883V25.783ZM99.8162 24.2088C98.9241 23.1438 98.4611 21.7822 98.4611 20.0815H97.3611C97.3611 21.9936 97.8871 23.6189 98.9729 24.9152L99.8162 24.2088ZM98.4611 20.0815C98.4611 18.3458 98.9512 16.9512 99.901 15.8553L99.0697 15.1349C97.9205 16.4609 97.3611 18.1239 97.3611 20.0815H98.4611ZM99.9025 15.8536C100.844 14.758 102.042 14.2136 103.542 14.2136V13.1136C101.732 13.1136 100.226 13.7902 99.0682 15.1366L99.9025 15.8536ZM103.542 14.2136C104.368 14.2136 105.1 14.3917 105.75 14.739L106.268 13.7688C105.445 13.329 104.533 13.1136 103.542 13.1136V14.2136ZM105.753 14.7405C106.387 15.0749 106.896 15.6012 107.274 16.3489L108.256 15.8523C107.787 14.9248 107.125 14.22 106.266 13.7673L105.753 14.7405ZM107.278 16.356C107.653 17.0712 107.866 18.1298 107.866 19.582H108.966C108.966 18.0473 108.745 16.785 108.252 15.8452L107.278 16.356ZM107.866 19.582V20.248H108.966V19.582H107.866ZM108.416 19.698H99.894V20.798H108.416V19.698ZM99.344 20.248C99.344 21.6323 99.717 22.8221 100.498 23.7753L101.349 23.0782C100.757 22.3563 100.444 21.4269 100.444 20.248H99.344ZM100.503 23.7809C101.318 24.7495 102.439 25.218 103.799 25.218V24.118C102.717 24.118 101.922 23.759 101.344 23.0726L100.503 23.7809ZM103.799 25.218C104.726 25.218 105.522 25.0462 106.072 24.5927L105.372 23.7442C105.114 23.9567 104.629 24.118 103.799 24.118V25.218ZM106.073 24.5918C106.576 24.1746 106.892 23.6479 106.892 23.0181H105.792C105.792 23.2359 105.695 23.4761 105.371 23.7451L106.073 24.5918ZM106.892 23.0181V22.9121H105.792V23.0181H106.892ZM100.015 19.2995H106.494V18.1995H100.015V19.2995ZM107.044 18.7495V18.5073H105.944V18.7495H107.044ZM107.044 18.5073C107.044 17.8584 106.883 17.232 106.573 16.6342L105.597 17.1411C105.831 17.5928 105.944 18.0463 105.944 18.5073H107.044ZM106.579 16.6455C106.271 16.0186 105.826 15.534 105.238 15.2215L104.722 16.1926C105.083 16.3847 105.374 16.6871 105.591 17.1299L106.579 16.6455ZM105.238 15.2215C104.672 14.9204 104.031 14.7786 103.33 14.7786V15.8786C103.881 15.8786 104.339 15.9891 104.722 16.1926L105.238 15.2215ZM103.33 14.7786C102.418 14.7786 101.596 15.154 100.877 15.8385L101.636 16.6351C102.188 16.1087 102.749 15.8786 103.33 15.8786V14.7786ZM100.877 15.8384C100.148 16.5328 99.6918 17.4861 99.4745 18.6485L100.556 18.8506C100.742 17.8534 101.114 17.1316 101.635 16.6352L100.877 15.8384ZM113.169 26V26.55H113.719V26H113.169ZM111.171 26H110.621V26.55H111.171V26ZM111.171 13.9966V13.4466H110.621V13.9966H111.171ZM113.169 13.9966H113.719V13.4466H113.169V13.9966ZM113.169 16.1157H112.619L113.653 16.3774L113.169 16.1157ZM114.244 14.6929L113.888 14.273L113.883 14.2776L114.244 14.6929ZM115.5 13.936L115.698 14.4492L115.708 14.4451L115.5 13.936ZM117.922 13.8452H118.472V13.4728L118.126 13.3346L117.922 13.8452ZM117.922 15.9189L117.68 16.413L118.472 16.8004V15.9189H117.922ZM114.229 16.5698L114.603 16.9729L114.606 16.97L114.229 16.5698ZM113.169 25.45H111.171V26.55H113.169V25.45ZM111.721 26V13.9966H110.621V26H111.721ZM111.171 14.5466H113.169V13.4466H111.171V14.5466ZM112.619 13.9966V16.1157H113.719V13.9966H112.619ZM113.653 16.3774C113.965 15.7996 114.286 15.3848 114.604 15.1081L113.883 14.2776C113.435 14.667 113.039 15.2007 112.685 15.854L113.653 16.3774ZM114.599 15.1127C114.95 14.816 115.316 14.5968 115.698 14.4491L115.302 13.423C114.796 13.6184 114.325 13.9037 113.888 14.273L114.599 15.1127ZM115.708 14.4451C116.09 14.2889 116.468 14.2136 116.847 14.2136V13.1136C116.318 13.1136 115.798 13.2199 115.292 13.427L115.708 14.4451ZM116.847 14.2136C117.209 14.2136 117.495 14.2667 117.718 14.3559L118.126 13.3346C117.744 13.1815 117.313 13.1136 116.847 13.1136V14.2136ZM117.372 13.8452V15.9189H118.472V13.8452H117.372ZM118.164 15.4249C117.615 15.1562 117.032 15.0208 116.423 15.0208V16.1208C116.864 16.1208 117.281 16.2175 117.68 16.413L118.164 15.4249ZM116.423 15.0208C115.49 15.0208 114.63 15.4356 113.851 16.1697L114.606 16.97C115.24 16.372 115.843 16.1208 116.423 16.1208V15.0208ZM113.854 16.1668C112.977 16.9818 112.619 18.3442 112.619 20.0664H113.719C113.719 18.4383 114.068 17.4697 114.603 16.9729L113.854 16.1668ZM112.619 20.0664V26H113.719V20.0664H112.619ZM121.524 26V26.55H122.074V26H121.524ZM119.678 26H119.128V26.55H119.678V26ZM119.678 9.31934V8.76934H119.128V9.31934H119.678ZM121.812 9.31934L122.316 9.10013L122.173 8.76934H121.812V9.31934ZM126.989 21.2319L126.484 21.4511L127.01 22.6599L127.499 21.4363L126.989 21.2319ZM131.757 9.31934V8.76934H131.385L131.246 9.11496L131.757 9.31934ZM133.861 9.31934H134.411V8.76934H133.861V9.31934ZM133.861 26V26.55H134.411V26H133.861ZM131.938 26H131.388V26.55H131.938V26ZM131.938 16.0552L131.388 16.0468V16.0552H131.938ZM131.984 13.0884L132.534 13.0968L132.542 12.5384H131.984V13.0884ZM131.938 13.0884V12.5384H131.552L131.421 12.9019L131.938 13.0884ZM130.864 16.0703L131.375 16.2733L131.378 16.2651L131.381 16.2568L130.864 16.0703ZM127.912 23.5024V24.0524H128.285L128.423 23.7054L127.912 23.5024ZM125.717 23.5024L125.212 23.7197L125.355 24.0524H125.717V23.5024ZM122.508 16.04L121.991 16.2278L121.997 16.2427L122.003 16.2573L122.508 16.04ZM121.524 13.3306L122.041 13.1428L121.91 12.7806H121.524V13.3306ZM121.464 13.3306V12.7806H120.901L120.914 13.3429L121.464 13.3306ZM121.524 16.04L122.075 16.04L122.074 16.0278L121.524 16.04ZM121.524 25.45H119.678V26.55H121.524V25.45ZM120.228 26V9.31934H119.128V26H120.228ZM119.678 9.86934H121.812V8.76934H119.678V9.86934ZM121.308 9.53854L126.484 21.4511L127.493 21.0127L122.316 9.10013L121.308 9.53854ZM127.499 21.4363L132.267 9.52371L131.246 9.11496L126.478 21.0276L127.499 21.4363ZM131.757 9.86934H133.861V8.76934H131.757V9.86934ZM133.311 9.31934V26H134.411V9.31934H133.311ZM133.861 25.45H131.938V26.55H133.861V25.45ZM132.488 26V16.0552H131.388V26H132.488ZM132.488 16.0636L132.534 13.0968L131.434 13.08L131.389 16.0468L132.488 16.0636ZM131.984 12.5384H131.938V13.6384H131.984V12.5384ZM131.421 12.9019L130.346 15.8838L131.381 16.2568L132.456 13.2749L131.421 12.9019ZM130.353 15.8673L127.401 23.2994L128.423 23.7054L131.375 16.2733L130.353 15.8673ZM127.912 22.9524H125.717V24.0524H127.912V22.9524ZM126.223 23.2852L123.014 15.8228L122.003 16.2573L125.212 23.7197L126.223 23.2852ZM123.025 15.8523L122.041 13.1428L121.007 13.5183L121.991 16.2278L123.025 15.8523ZM121.524 12.7806H121.464V13.8806H121.524V12.7806ZM120.914 13.3429L120.975 16.0523L122.074 16.0278L122.014 13.3183L120.914 13.3429ZM120.974 16.04V26H122.074V16.04H120.974ZM144.441 26L143.919 26.1715L144.043 26.55H144.441V26ZM144.124 24.335H144.674V23.0179L143.737 23.9438L144.124 24.335ZM137.645 25.4551L137.288 25.8735L137.645 25.4551ZM138.054 20.3691L138.354 20.8297L138.355 20.829L138.054 20.3691ZM143.049 18.7192L142.95 18.1782L142.943 18.1796L143.049 18.7192ZM144.124 18.5225L144.223 19.0635L144.674 18.9809V18.5225H144.124ZM143.382 15.6162L143.095 16.0853L143.102 16.0895L143.382 15.6162ZM139.643 15.7222L139.982 16.1553L139.983 16.1543L139.643 15.7222ZM138.947 17.1602V17.7102H139.497V17.1602H138.947ZM136.782 17.1602H136.232V17.7102H136.782V17.1602ZM137.448 15.3589L137.019 15.0144L137.016 15.0191L137.448 15.3589ZM139.234 14.0874L139.431 14.6009L139.435 14.5995L139.234 14.0874ZM144.063 14.0571L143.867 14.5712L144.063 14.0571ZM145.622 15.1621L145.171 15.4762L145.175 15.4827L145.622 15.1621ZM146.152 24.0474L145.602 24.067L145.603 24.0773L146.152 24.0474ZM146.545 26V26.55H147.292L147.071 25.8368L146.545 26ZM144.124 19.9453H144.674V19.2578L144.003 19.4087L144.124 19.9453ZM143.518 20.0815L143.397 19.5449L143.388 19.5472L143.518 20.0815ZM139.628 21.5044L139.968 21.9369L139.972 21.9331L139.628 21.5044ZM139.022 23.9717L138.549 24.2521L138.553 24.2585L138.557 24.2647L139.022 23.9717ZM142.398 24.3501L142.682 24.8209L142.685 24.8194L142.398 24.3501ZM144.964 25.8285C144.763 25.2148 144.674 24.7207 144.674 24.335H143.574C143.574 24.8777 143.696 25.4935 143.919 26.1715L144.964 25.8285ZM143.737 23.9438C142.874 24.7967 142.194 25.2798 141.689 25.4702L142.077 26.4995C142.804 26.2257 143.617 25.6089 144.51 24.7261L143.737 23.9438ZM141.689 25.4702C141.127 25.6823 140.597 25.783 140.097 25.783V26.883C140.747 26.883 141.409 26.7517 142.077 26.4995L141.689 25.4702ZM140.097 25.783C139.272 25.783 138.583 25.5323 138.002 25.0366L137.288 25.8735C138.079 26.5484 139.025 26.883 140.097 26.883V25.783ZM138.002 25.0366C137.455 24.5701 137.166 23.93 137.166 23.0483H136.066C136.066 24.2051 136.463 25.1694 137.288 25.8735L138.002 25.0366ZM137.166 23.0483C137.166 22.0706 137.554 21.3522 138.354 20.8297L137.753 19.9086C136.636 20.6374 136.066 21.7051 136.066 23.0483H137.166ZM138.355 20.829C139.23 20.2554 140.804 19.721 143.155 19.2589L142.943 18.1796C140.571 18.6459 138.815 19.2114 137.752 19.9093L138.355 20.829ZM143.148 19.2602L144.223 19.0635L144.024 17.9815L142.95 18.1782L143.148 19.2602ZM144.674 18.5225V17.1602H143.574V18.5225H144.674ZM144.674 17.1602C144.674 16.2921 144.372 15.5629 143.662 15.1429L143.102 16.0895C143.381 16.2548 143.574 16.5549 143.574 17.1602H144.674ZM143.669 15.1471C143.072 14.7817 142.373 14.6121 141.596 14.6121V15.7121C142.211 15.7121 142.703 15.8452 143.095 16.0853L143.669 15.1471ZM141.596 14.6121C140.69 14.6121 139.905 14.8164 139.303 15.29L139.983 16.1543C140.33 15.8812 140.846 15.7121 141.596 15.7121V14.6121ZM139.304 15.289C138.739 15.7315 138.397 16.3032 138.397 16.9937H139.497C139.497 16.7154 139.619 16.4394 139.982 16.1553L139.304 15.289ZM138.397 16.9937V17.1602H139.497V16.9937H138.397ZM138.947 16.6102H136.782V17.7102H138.947V16.6102ZM137.332 17.1602V17.0088H136.232V17.1602H137.332ZM137.332 17.0088C137.332 16.6336 137.487 16.2001 137.881 15.6987L137.016 15.0191C136.522 15.6479 136.232 16.3143 136.232 17.0088H137.332ZM137.877 15.7034C138.265 15.2208 138.777 14.8518 139.431 14.6009L139.037 13.5739C138.218 13.8881 137.54 14.3668 137.02 15.0144L137.877 15.7034ZM139.435 14.5995C140.112 14.3342 140.856 14.1984 141.671 14.1984V13.0984C140.731 13.0984 139.85 13.2553 139.034 13.5753L139.435 14.5995ZM141.671 14.1984C142.492 14.1984 143.222 14.3257 143.867 14.5712L144.258 13.543C143.471 13.2437 142.607 13.0984 141.671 13.0984V14.1984ZM143.867 14.5712C144.516 14.818 144.93 15.1301 145.171 15.4762L146.074 14.848C145.669 14.2658 145.043 13.8412 144.258 13.543L143.867 14.5712ZM145.175 15.4827C145.277 15.6244 145.381 15.8706 145.457 16.2648C145.531 16.6533 145.572 17.1509 145.572 17.7656H146.672C146.672 17.1088 146.629 16.5368 146.537 16.0575C146.446 15.5839 146.3 15.164 146.069 14.8415L145.175 15.4827ZM145.572 17.7656V22.4277H146.672V17.7656H145.572ZM145.572 22.4277C145.572 22.9495 145.582 23.496 145.602 24.067L146.702 24.0277C146.682 23.4685 146.672 22.9352 146.672 22.4277H145.572ZM145.603 24.0773C145.636 24.6917 145.78 25.3893 146.02 26.1632L147.071 25.8368C146.847 25.1172 146.728 24.513 146.701 24.0174L145.603 24.0773ZM146.545 25.45H144.441V26.55H146.545V25.45ZM144.003 19.4087L143.397 19.545L143.639 20.6181L144.244 20.4819L144.003 19.4087ZM143.388 19.5472C142.363 19.7971 141.51 20.0448 140.835 20.2916C140.172 20.5342 139.638 20.7909 139.283 21.0757L139.972 21.9331C140.183 21.7637 140.58 21.5563 141.213 21.3246C141.835 21.0971 142.645 20.8605 143.648 20.6159L143.388 19.5472ZM139.288 21.0719C138.615 21.6006 138.23 22.28 138.23 23.0938H139.33C139.33 22.6764 139.51 22.2962 139.968 21.9369L139.288 21.0719ZM138.23 23.0938C138.23 23.5065 138.338 23.8958 138.549 24.2521L139.496 23.6913C139.384 23.5026 139.33 23.3066 139.33 23.0938H138.23ZM138.557 24.2647C138.793 24.6401 139.135 24.9185 139.552 25.1081L140.007 24.1067C139.758 23.9936 139.595 23.8481 139.488 23.6786L138.557 24.2647ZM139.552 25.1081C139.947 25.2877 140.352 25.3845 140.763 25.3845V24.2845C140.529 24.2845 140.278 24.2299 140.007 24.1067L139.552 25.1081ZM140.763 25.3845C141.431 25.3845 142.073 25.189 142.682 24.8209L142.114 23.8793C141.654 24.1571 141.206 24.2845 140.763 24.2845V25.3845ZM142.685 24.8194C143.309 24.4381 143.8 23.9303 144.15 23.3003L143.189 22.7661C142.933 23.2259 142.577 23.596 142.111 23.8808L142.685 24.8194ZM144.15 23.3003C144.505 22.6611 144.674 21.9304 144.674 21.126H143.574C143.574 21.7746 143.439 22.3155 143.189 22.7661L144.15 23.3003ZM144.674 21.126V19.9453H143.574V21.126H144.674ZM156.536 24.3047H157.086V23.5628L156.376 23.7784L156.536 24.3047ZM156.536 25.9849L156.664 26.5197L157.086 26.4187V25.9849H156.536ZM152.282 25.8789L152.033 26.3692L152.036 26.3708L152.282 25.8789ZM150.92 24.5771L150.437 24.8399L150.439 24.8435L150.92 24.5771ZM150.451 15.6616H151.001V15.1116H150.451V15.6616ZM148.377 15.6616H147.827V16.2116H148.377V15.6616ZM148.377 13.9966V13.4466H147.827V13.9966H148.377ZM150.451 13.9966V14.5466H151.001V13.9966H150.451ZM150.451 11.1509V10.6009H149.901V11.1509H150.451ZM152.464 11.1509H153.014V10.6009H152.464V11.1509ZM152.464 13.9966H151.914V14.5466H152.464V13.9966ZM155.96 13.9966H156.51V13.4466H155.96V13.9966ZM155.96 15.6616V16.2116H156.51V15.6616H155.96ZM152.464 15.6616V15.1116H151.914V15.6616H152.464ZM155.986 24.3047V25.9849H157.086V24.3047H155.986ZM156.408 25.45C155.449 25.6795 154.759 25.783 154.311 25.783V26.883C154.892 26.883 155.684 26.7544 156.664 26.5197L156.408 25.45ZM154.311 25.783C153.64 25.783 153.05 25.6477 152.528 25.387L152.036 26.3708C152.726 26.7156 153.487 26.883 154.311 26.883V25.783ZM152.532 25.3886C152.031 25.1339 151.659 24.7763 151.401 24.3108L150.439 24.8435C150.807 25.5082 151.343 26.0184 152.033 26.3692L152.532 25.3886ZM151.403 24.3144C151.158 23.8643 151.001 23.0663 151.001 21.8374H149.901C149.901 23.1111 150.056 24.1396 150.437 24.8399L151.403 24.3144ZM151.001 21.8374V15.6616H149.901V21.8374H151.001ZM150.451 15.1116H148.377V16.2116H150.451V15.1116ZM148.927 15.6616V13.9966H147.827V15.6616H148.927ZM148.377 14.5466H150.451V13.4466H148.377V14.5466ZM151.001 13.9966V11.1509H149.901V13.9966H151.001ZM150.451 11.7009H152.464V10.6009H150.451V11.7009ZM151.914 11.1509V13.9966H153.014V11.1509H151.914ZM152.464 14.5466H155.96V13.4466H152.464V14.5466ZM155.41 13.9966V15.6616H156.51V13.9966H155.41ZM155.96 15.1116H152.464V16.2116H155.96V15.1116ZM151.914 15.6616V21.2622H153.014V15.6616H151.914ZM151.914 21.2622C151.914 22.3212 151.991 23.1522 152.194 23.6721L153.218 23.2722C153.098 22.9647 153.014 22.3224 153.014 21.2622H151.914ZM152.194 23.6721C152.397 24.1933 152.736 24.6034 153.216 24.8637L153.74 23.897C153.514 23.7739 153.338 23.5785 153.218 23.2722L152.194 23.6721ZM153.216 24.8637C153.666 25.1082 154.184 25.218 154.75 25.218V24.118C154.326 24.118 153.997 24.036 153.74 23.897L153.216 24.8637ZM154.75 25.218C155.23 25.218 155.891 25.0754 156.696 24.8309L156.376 23.7784C155.586 24.0184 155.057 24.118 154.75 24.118V25.218ZM166.829 22.9121V22.3621H166.279V22.9121H166.829ZM168.827 22.9121H169.377V22.3621H168.827V22.9121ZM168.191 24.6528L168.625 24.9905L168.628 24.9866L168.191 24.6528ZM166.511 25.9092L166.718 26.4189L166.724 26.4162L166.511 25.9092ZM159.881 24.562L159.459 24.9152L159.461 24.9173L159.881 24.562ZM159.972 15.4951L160.387 15.8553L160.389 15.8536L159.972 15.4951ZM166.496 14.2539L166.236 14.739L166.239 14.7405L166.496 14.2539ZM168.251 16.1006L167.761 16.3489L167.764 16.356L168.251 16.1006ZM168.902 20.248V20.798H169.452V20.248H168.902ZM160.38 20.248V19.698H159.83V20.248H160.38ZM161.41 23.4268L160.984 23.7753L160.989 23.7809L161.41 23.4268ZM166.208 24.1685L166.558 24.5927L166.559 24.5918L166.208 24.1685ZM160.501 18.7495L159.961 18.6485L159.839 19.2995H160.501V18.7495ZM166.98 18.7495V19.2995H167.53V18.7495H166.98ZM166.571 16.8877L166.077 17.13L166.083 17.1411L166.571 16.8877ZM165.466 15.707L165.208 16.1926L165.466 15.707ZM161.743 16.2368L162.122 16.6352L162.122 16.6351L161.743 16.2368ZM166.829 23.4621H168.827V22.3621H166.829V23.4621ZM168.277 22.9121V23.0181H169.377V22.9121H168.277ZM168.277 23.0181C168.277 23.3999 168.127 23.8305 167.754 24.319L168.628 24.9866C169.103 24.3651 169.377 23.7059 169.377 23.0181H168.277ZM167.757 24.3152C167.396 24.7787 166.915 25.1425 166.298 25.4021L166.724 26.4162C167.499 26.0905 168.138 25.6168 168.625 24.9905L167.757 24.3152ZM166.304 25.3995C165.685 25.6508 164.96 25.783 164.119 25.783V26.883C165.075 26.883 165.944 26.7327 166.718 26.4188L166.304 25.3995ZM164.119 25.783C162.422 25.783 161.176 25.2412 160.301 24.2067L159.461 24.9173C160.584 26.2442 162.163 26.883 164.119 26.883V25.783ZM160.302 24.2088C159.41 23.1438 158.947 21.7822 158.947 20.0815H157.847C157.847 21.9936 158.373 23.6189 159.459 24.9152L160.302 24.2088ZM158.947 20.0815C158.947 18.3458 159.438 16.9512 160.387 15.8553L159.556 15.1349C158.407 16.4609 157.847 18.1239 157.847 20.0815H158.947ZM160.389 15.8536C161.33 14.758 162.529 14.2136 164.028 14.2136V13.1136C162.218 13.1136 160.712 13.7902 159.555 15.1366L160.389 15.8536ZM164.028 14.2136C164.854 14.2136 165.586 14.3917 166.236 14.739L166.755 13.7688C165.932 13.329 165.019 13.1136 164.028 13.1136V14.2136ZM166.239 14.7405C166.874 15.0749 167.382 15.6012 167.761 16.3489L168.742 15.8523C168.273 14.9248 167.611 14.22 166.752 13.7673L166.239 14.7405ZM167.764 16.356C168.139 17.0712 168.352 18.1298 168.352 19.582H169.452C169.452 18.0473 169.231 16.785 168.739 15.8452L167.764 16.356ZM168.352 19.582V20.248H169.452V19.582H168.352ZM168.902 19.698H160.38V20.798H168.902V19.698ZM159.83 20.248C159.83 21.6323 160.203 22.8221 160.984 23.7753L161.835 23.0782C161.244 22.3563 160.93 21.4269 160.93 20.248H159.83ZM160.989 23.7809C161.804 24.7495 162.926 25.218 164.286 25.218V24.118C163.203 24.118 162.408 23.759 161.831 23.0726L160.989 23.7809ZM164.286 25.218C165.212 25.218 166.008 25.0462 166.558 24.5927L165.858 23.7442C165.6 23.9567 165.115 24.118 164.286 24.118V25.218ZM166.559 24.5918C167.062 24.1746 167.379 23.6479 167.379 23.0181H166.279C166.279 23.2359 166.181 23.4761 165.857 23.7451L166.559 24.5918ZM167.379 23.0181V22.9121H166.279V23.0181H167.379ZM160.501 19.2995H166.98V18.1995H160.501V19.2995ZM167.53 18.7495V18.5073H166.43V18.7495H167.53ZM167.53 18.5073C167.53 17.8584 167.37 17.232 167.059 16.6342L166.083 17.1411C166.318 17.5928 166.43 18.0463 166.43 18.5073H167.53ZM167.065 16.6455C166.758 16.0186 166.312 15.534 165.725 15.2215L165.208 16.1926C165.569 16.3847 165.86 16.6871 166.078 17.1299L167.065 16.6455ZM165.725 15.2215C165.159 14.9204 164.517 14.7786 163.816 14.7786V15.8786C164.367 15.8786 164.825 15.9891 165.208 16.1926L165.725 15.2215ZM163.816 14.7786C162.904 14.7786 162.082 15.154 161.363 15.8385L162.122 16.6351C162.675 16.1087 163.235 15.8786 163.816 15.8786V14.7786ZM161.364 15.8384C160.634 16.5328 160.178 17.4861 159.961 18.6485L161.042 18.8506C161.228 17.8534 161.6 17.1316 162.122 16.6352L161.364 15.8384Z" fill="white" mask="url(#path-2-outside-1_9_2)"/>
<defs>
<linearGradient id="paint0_linear_9_2" x1="15" y1="3" x2="15" y2="33" gradientUnits="userSpaceOnUse">
<stop stop-color="#877EFF"/>
<stop offset="0.461458" stop-color="#685DFF"/>
<stop offset="1" stop-color="#3121FF"/>
</linearGradient>
</defs>
</svg>
